<?xml version="1.0" encoding="utf-8"?>
<!-- Generator: Adobe Illustrator 23.0.1, SVG Export Plug-In . SVG Version: 6.00 Build 0)  -->
<svg version="1.1" id="Layer_1" xmlns="http://www.w3.org/2000/svg" xmlns:xlink="http://www.w3.org/1999/xlink" x="0px" y="0px"
	 viewBox="0 0 500 90" style="enable-background:new 0 0 500 90;" xml:space="preserve">
<style type="text/css">
	.st0{fill-rule:evenodd;clip-rule:evenodd;}
	.st1{fill:none;stroke:#000000;stroke-width:3;stroke-miterlimit:10;}
</style>
<g>
	<g>
		<path d="M494.93,46.81c-0.91,0-1.32,0.94-1.67,2.51c-1.19,5.48-2.44,6.72-4.06,6.72c-1.8,0-3.42-2.72-3.84-8.15
			c-0.33-4.27-0.28-12.14,0.15-19.97c0.08-1.61-0.36-3.2-4.67-4.77c-1.85-0.68-4.55-1.67-5.9,1.58c-3.79,9.16-5.28,16.44-5.63,19.39
			c-0.02,0.15-0.2,0.19-0.24-0.17c-0.22-2.37-0.72-6.67-0.78-15.7c-0.01-1.76-0.38-3.26-2.33-4.49c-1.26-0.79-5.1-2.2-6.48-0.53
			c-1.19,1.37-2.58,5.06-4.02,9.44c-1.17,3.56-1.98,5.96-1.98,5.96s0.02-9.6,0.03-13.23c0.01-1.38-0.94-1.83-1.22-1.92
			c-1.28-0.37-3.8-0.99-4.86-0.99c-1.32,0-1.64,0.74-1.64,1.81c0,0.14-0.21,12.64-0.21,21.37c0,0.38,0,0.79,0.01,1.23
			c-0.73,4.02-3.09,9.47-5.67,9.47s-3.79-2.28-3.79-12.69c0-6.08,0.19-8.72,0.27-13.11c0.05-2.53,0.15-4.48,0.15-4.91
			c-0.02-1.35-2.36-2.03-3.44-2.29c-1.09-0.25-2.05-0.36-2.78-0.31c-1.05,0.06-1.79,0.75-1.79,1.7c0,0.51,0.01,1.47,0.01,1.47
			c-1.35-2.12-3.53-3.61-4.98-4.04c-3.9-1.16-7.96-0.13-11.04,4.16c-2.44,3.41-3.91,7.28-4.49,12.83
			c-0.42,4.06-0.28,8.17,0.47,11.66c-0.91,3.93-2.6,5.54-4.44,5.54c-2.68,0-4.63-4.38-4.4-11.94c0.15-4.98,1.14-8.47,2.23-13.53
			c0.47-2.16,0.09-3.28-0.86-4.36c-0.87-0.99-2.72-1.5-5.38-0.87c-1.89,0.45-4.6,0.92-7.07,1.29c0,0,0.15-0.6,0.27-1.65
			c0.64-5.51-5.35-5.07-7.26-3.3c-1.14,1.05-1.92,2.29-2.21,4.52c-0.47,3.54,2.42,5.21,2.42,5.21c-0.95,4.33-3.27,9.99-5.66,14.09
			c-1.29,2.19-2.27,3.82-3.53,5.55c-0.01-0.64-0.01-1.29-0.01-1.93c-0.03-9.11,0.09-16.28,0.15-18.87c0.05-2.53,0.15-4.42,0.15-4.86
			c-0.02-0.99-0.59-1.36-1.79-1.84c-1.07-0.42-2.32-0.71-3.62-0.81c-1.65-0.13-2.64,0.74-2.61,1.78c0.01,0.2,0.01,1.39,0.01,1.39
			c-1.35-2.12-3.53-3.61-4.98-4.04c-3.9-1.16-7.97-0.13-11.04,4.16c-2.44,3.41-4.04,8.2-4.49,12.78c-0.42,4.28-0.34,7.91,0.23,10.97
			c-0.62,3.06-2.4,6.27-4.42,6.27c-2.58,0-4.04-2.28-4.04-12.69c0-6.08,0.18-8.72,0.27-13.11c0.05-2.53,0.15-4.48,0.15-4.91
			c-0.02-1.35-2.36-2.03-3.44-2.29c-1.14-0.26-2.12-0.36-2.87-0.3c-1,0.07-1.7,0.96-1.7,1.63s0,1.53,0,1.53
			c-1.35-2.12-3.53-3.61-4.98-4.04c-3.9-1.16-7.94-0.11-11.04,4.16c-2.02,2.79-3.65,5.88-4.49,12.73c-0.24,1.98-0.35,3.83-0.34,5.56
			c-0.81,4.91-4.35,10.58-7.26,10.58c-1.7,0-3.32-3.3-3.32-10.32c0-9.36,0.58-22.68,0.68-23.97c0,0,3.67-0.06,4.38-0.07
			c1.83-0.02,3.49,0.02,5.92-0.1c1.22-0.06,2.4-4.45,1.14-4.99c-0.57-0.25-4.62-0.46-6.22-0.5c-1.35-0.03-5.1-0.31-5.1-0.31
			s0.34-8.84,0.42-9.78c0.07-0.78-0.94-1.18-1.52-1.42c-1.4-0.59-2.66-0.88-4.15-1.18c-2.06-0.42-2.99-0.01-3.17,1.73
			c-0.28,2.64-0.42,10.36-0.42,10.36c-1.51,0-6.67-0.29-8.18-0.29c-1.4,0-2.92,6.04-0.98,6.11c2.23,0.08,6.13,0.16,8.7,0.24
			c0,0-0.11,13.54-0.11,17.73c0,0.45,0,0.87,0.01,1.29c-1.42,7.4-6.42,11.4-6.42,11.4c1.08-4.89-1.12-8.57-5.07-11.68
			c-1.45-1.14-4.33-3.31-7.55-5.7c0,0,1.86-1.84,3.52-5.53c1.17-2.62,1.22-5.61-1.65-6.27c-4.75-1.09-8.66,2.4-9.82,6.12
			c-0.9,2.88-0.42,5.02,1.35,7.24c0.13,0.16,0.27,0.33,0.42,0.5c-1.07,2.06-2.54,4.85-3.79,7c-3.46,5.99-6.08,10.72-8.05,10.72
			c-1.58,0-1.56-4.81-1.56-9.31c0-3.88,0.29-9.71,0.51-15.75c0.07-2-0.92-3.13-2.6-4.17c-1.01-0.63-3.18-1.85-4.45-1.85
			c-1.88,0-7.31,0.25-12.45,15.09c-0.65,1.87-1.92,5.28-1.92,5.28l0.11-17.85c0-0.42-0.23-0.82-0.73-1.1
			c-0.66-0.36-2.17-1-3.77-1.29c-0.16-0.04-0.31-0.06-0.46-0.07c-0.34-0.05-0.68-0.07-1.01-0.07c-0.45,0-0.79,0.1-1.03,0.29
			c-2.55,0.7-6.65,3.52-10.57,14.86c-0.65,1.87-1.92,5.28-1.92,5.28l0.11-17.85c0-0.42-0.23-0.82-0.73-1.1
			c-0.86-0.47-3.17-1.43-5.23-1.43c-0.98,0-1.47,0.46-1.47,1.36l-0.18,27.92c0,2.12,0.06,4.6,0.26,5.68
			c0.21,1.08,0.55,1.97,0.97,2.49c0.42,0.52,0.9,0.92,1.7,1.09c0.74,0.15,4.81,0.68,5.03-0.88c0.25-1.87,0.26-3.88,2.4-11.4
			c3.05-10.74,6.96-16.43,9.15-18.87l-0.14,21.82c0,2.12,0.06,4.6,0.26,5.68c0.21,1.08,0.55,1.97,0.97,2.49
			c0.42,0.52,0.9,0.92,1.7,1.09c0.74,0.15,4.81,0.68,5.03-0.88c0.25-1.87,0.26-3.88,2.4-11.4c3.33-11.71,7.67-17.42,9.7-19.45
			c0.36-0.36,0.77-0.38,0.74,0.2c-0.08,2.56-0.39,8.98-0.6,14.42c-0.55,14.58,2.1,17.28,5.89,17.28c2.9,0,6.99-2.88,11.37-10.17
			c2.73-4.54,5.38-9,7.29-12.21c1.33,1.23,2.82,2.55,4.31,3.97c3.46,3.29,4.6,6.4,3.84,9.37c-0.57,2.27-2.75,4.6-6.61,2.33
			c-1.13-0.66-1.61-1.17-2.74-1.92c-0.61-0.4-1.54-0.52-2.1-0.1c-1.45,1.09-2.28,2.48-2.75,4.2c-0.46,1.67,1.22,2.55,2.95,3.33
			c1.49,0.67,4.71,1.27,6.75,1.34c7.98,0.26,14.37-3.86,18.83-14.48c0.79,9.18,4.19,14.37,10.08,14.37c3.94,0,7.89-5.09,9.62-10.1
			c0.5,2.04,1.23,3.82,2.18,5.32c4.54,7.19,13.35,5.64,17.77-0.46c1.37-1.89,1.58-2.56,1.58-2.56c0.65,5.77,5.29,7.78,7.95,7.78
			c2.98,0,6.05-1.41,8.21-6.26c0.25,0.52,0.53,1.03,0.83,1.5c4.54,7.19,13.35,5.64,17.77-0.46c0.21-0.29,0.39-0.55,0.55-0.78
			l0.13,3.79c0,0-2.53,2.32-4.07,3.74c-6.83,6.26-12.01,11-12.39,16.53c-0.48,7.05,5.23,9.67,9.55,10
			c4.59,0.37,8.52-2.17,10.94-5.72c2.12-3.12,3.52-9.85,3.42-16.49c-0.04-2.66-0.11-6.04-0.16-9.67c2.4-2.78,5.1-6.3,7.58-10.42
			c2.71-4.49,5.61-10.51,7.1-15.2c0,0,2.52,0.02,5.21-0.16c0.86-0.06,1.11,0.12,0.95,0.75c-0.19,0.76-3.4,13.14-0.47,21.38
			c2.01,5.65,6.52,7.46,9.2,7.46c3.13,0,6.14-2.37,7.74-5.88c0.19,0.39,0.39,0.77,0.61,1.12c4.54,7.19,13.31,5.64,17.77-0.46
			c1-1.38,1.58-2.56,1.58-2.56c0.96,5.97,5.6,7.81,8.26,7.81c2.77,0,5.39-1.13,7.53-6.18c0.09,2.22,0.23,4.04,0.45,4.61
			c0.14,0.35,0.92,0.79,1.49,1c2.53,0.94,5.12,0.5,6.07,0.3c0.67-0.14,1.18-0.67,1.25-2.04c0.19-3.6,0.07-9.66,1.16-14.15
			c1.83-7.55,3.55-10.48,4.35-11.93c0.46-0.81,0.96-0.95,0.99-0.08c0.04,1.74,0.12,6.85,0.83,13.71c0.52,5.04,1.22,8.03,1.75,8.97
			c1.53,2.7,3.42,2.82,4.95,2.82c0.98,0,3.02-0.27,2.84-1.99c-0.09-0.84,0.07-6.01,1.88-13.45c1.18-4.86,3.15-9.24,3.86-10.85
			c0.26-0.59,0.38-0.12,0.38-0.03c-0.15,3.34-0.48,14.28,0.88,20.27c1.85,8.11,7.19,9.01,9.05,9.01c3.97,0,7.23-3.03,8.32-10.98
			C496.49,48.29,496.1,46.81,494.93,46.81z M328.44,41.89c-0.23,4.21-1.05,7.73-2.37,10.29c-2.38,4.63-7.1,6.09-9.18-0.59
			c-1.5-4.82-0.99-11.4-0.37-14.95c0.92-5.27,3.25-9.01,6.87-8.65C327.11,28.35,328.91,33.13,328.44,41.89z M364.77,41.95
			c-0.21,3.97-1.25,7.97-2.37,10.22c-2.32,4.66-7.18,6.12-9.18-0.59c-1.38-4.58-1.05-10.51-0.37-14.25
			c0.88-4.85,3.02-9.35,6.87-9.35C363.45,27.99,365.3,32.09,364.77,41.95z M365.72,69.08c-0.05,7.25-1.19,13.61-3.64,15.46
			c-3.47,2.62-8.14,0.65-7.17-4.64c0.86-4.68,4.9-9.46,10.82-15.31C365.73,64.58,365.74,65.92,365.72,69.08z M428.43,41.99
			c-0.2,4.36-1.17,7.78-2.37,10.19c-2.32,4.66-7.14,6.1-9.18-0.59c-1.12-3.65-1.17-9.75-0.37-14.84c0.82-5.19,3.09-9.11,6.87-8.75
			C427.1,28.34,428.84,33.13,428.43,41.99z"/>
		<path d="M187.39,2.7c-6.27,2.63-13.16,10.03-15.33,19.33c-2.76,11.79,8.71,16.77,9.65,15.14c1.1-1.92-2.06-2.57-2.71-8.69
			c-0.84-7.9,2.83-16.72,7.45-20.6c0.86-0.72,0.82,0.28,0.82,2.14c0,3.31-0.18,33.04-0.18,39.25c0,2.91,0.06,6.3,0.11,9.6
			c0.05,3.04,0.08,5.99,0.06,8.42c-2.8,6.88-7.78,10.72-10.99,12.58c-0.99,0.35-2,0.64-3.02,0.85c-6.03,1.22-7.6-1.61-9.1,0.03
			c-1.27,1.39,6.93,10.83,17.34,4.66c2.2-1.31,4.23-2.62,6.3-4.36c1.35-1.25,2.67-2.4,3.67-3.67c3.68-4.66,3.87-7.61,4.03-12.25
			c0.19-5.59,0.19-27.98,0.19-33.04c0.01-4.64,0.08-18.22-0.08-26.38C195.56,3.7,190.01,1.6,187.39,2.7z"/>
		<path d="M210.09,16.02c1.03-0.95,1.67-2.27,1.85-3.84c0.37-3.27-1.04-5.06-3.96-5.19c-2.84-0.13-4.66,1.26-5.38,3.23
			c-0.49,1.32-0.89,3.78,0.29,5.58C204.52,18.3,208.22,17.75,210.09,16.02z"/>
	</g>
	<g>
		<path d="M3.9,57.62c0-7.86,0-15.73,0-23.59c0.05-0.17,0.11-0.34,0.13-0.51c0.05-0.78,0.1-1.56,0.13-2.33
			c0.09-2.19,0.58-4.28,1.33-6.33c1.08-2.93,2.91-5.32,5.35-7.22c2.84-2.22,6.17-3.25,9.7-3.6c2.22-0.22,4.47-0.2,6.7-0.28
			c0.78-0.03,1.57,0.01,2.36-0.01c0.19-0.01,0.38-0.08,0.57-0.12c3.91,0,7.82,0,11.73,0c0.13,0.05,0.25,0.12,0.38,0.12
			c2.14,0.05,4.27,0.06,6.41,0.15c1.44,0.06,2.89,0.21,4.32,0.38c2.02,0.23,3.94,0.88,5.73,1.8c1.93,0.99,3.6,2.33,5.01,4.01
			c1.26,1.51,2.2,3.18,2.89,5.01c1.04,2.8,1.38,5.71,1.4,8.67c0,0.25,0.08,0.51,0.12,0.77c0,7.56,0,15.13,0,22.7
			c-0.05,0.08-0.12,0.17-0.12,0.25c-0.05,0.95-0.06,1.9-0.14,2.84c-0.1,1.14-0.15,2.31-0.41,3.42c-0.83,3.65-2.38,6.9-5.25,9.44
			c-1.72,1.52-3.62,2.67-5.77,3.42c-2.82,0.98-5.74,1.29-8.71,1.29c-0.25,0-0.51,0.08-0.77,0.12c-7.31,0-14.62,0-21.93,0
			c-0.13-0.05-0.25-0.12-0.38-0.13c-1.8-0.14-3.61-0.21-5.4-0.4c-1.89-0.2-3.7-0.78-5.42-1.58c-2.11-0.99-3.91-2.37-5.46-4.14
			C7.26,70.46,6.37,69,5.71,67.42c-1.23-2.95-1.7-6.05-1.69-9.24C4.03,58,3.95,57.81,3.9,57.62z M46.83,72.16
			c0-0.02,0.01-0.04,0.01-0.06c1.34-0.11,2.68-0.21,4.02-0.32c1.96-0.15,3.8-0.68,5.52-1.64c1.89-1.05,3.3-2.59,4.26-4.5
			c0.86-1.71,1.24-3.58,1.4-5.47c0.16-1.87,0.26-3.75,0.26-5.63c-0.01-6.3-0.07-12.6-0.11-18.91c-0.01-2.12-0.08-4.24-0.5-6.34
			c-0.46-2.31-1.4-4.36-3.07-6.04c-1.46-1.48-3.26-2.36-5.25-2.89c-2.44-0.66-4.95-0.7-7.43-0.73c-6.98-0.06-13.97,0.06-20.95,0.08
			c-1.94,0.01-3.87,0.11-5.76,0.52c-2.85,0.63-5.25,1.98-6.96,4.42c-1.42,2.03-2.03,4.33-2.22,6.74c-0.2,2.48-0.23,4.98-0.27,7.47
			c-0.04,2.32-0.03,4.63-0.01,6.95c0.07,4.57,0.15,9.15,0.25,13.72c0.05,1.98,0.45,3.88,1.25,5.7c1.02,2.33,2.71,4.02,4.92,5.18
			c1.73,0.91,3.65,1.29,5.59,1.44c2.04,0.16,4.09,0.25,6.13,0.26C34.22,72.18,40.52,72.16,46.83,72.16z"/>
		<path class="st0" d="M19.47,45.9c-0.03-9.08,7.36-16.97,17.32-16.58c8.43,0.33,16.03,7.24,15.81,16.98
			c-0.2,8.81-7.21,16.23-16.82,16.13C26.83,62.33,19.52,55.2,19.47,45.9z M46.63,45.87c0.08-5.92-4.8-10.71-10.61-10.66
			c-6.05,0.06-10.62,4.7-10.64,10.66c-0.02,5.75,4.46,10.28,10.04,10.6C41.82,56.86,46.82,51.47,46.63,45.87z"/>
		<path class="st0" d="M49.31,28.72c-0.25-1.98,1.83-4.03,4.04-3.92c1.87,0.1,3.82,1.78,3.76,4.04c-0.05,1.92-1.78,3.85-4.01,3.8
			C51.18,32.6,49.12,30.91,49.31,28.72z"/>
	</g>
	<line class="st1" x1="121.09" y1="8.02" x2="121.09" y2="83.62"/>
</g>
</svg>
